<?xml version="1.0" standalone="no"?>
<!DOCTYPE svg PUBLIC "-//W3C//DTD SVG 20010904//EN"
 "http://www.w3.org/TR/2001/REC-SVG-20010904/DTD/svg10.dtd">
<svg version="1.0" xmlns="http://www.w3.org/2000/svg"
 width="512.000000pt" height="512.000000pt" viewBox="0 0 512.000000 512.000000"
 preserveAspectRatio="xMidYMid meet">
<metadata>
Created by potrace 1.11, written by Peter Selinger 2001-2013
</metadata>
<g transform="translate(0.000000,512.000000) scale(0.100000,-0.100000)"
fill="#000000" stroke="none">
<path d="M2398 5115 c-2 -1 -39 -5 -83 -9 -44 -4 -89 -9 -100 -11 -11 -2 -38
-6 -60 -9 -122 -15 -351 -77 -515 -140 -493 -191 -913 -523 -1200 -951 -186
-278 -325 -607 -389 -920 -36 -180 -45 -283 -46 -510 0 -165 5 -253 20 -366
11 -85 60 -302 90 -398 205 -645 644 -1178 1230 -1491 230 -122 519 -225 745
-265 186 -33 253 -39 460 -39 187 0 285 7 415 29 623 108 1188 432 1570 899
316 388 515 865 572 1372 12 109 9 480 -6 574 -47 309 -117 539 -246 805 -248
510 -632 897 -1146 1155 -176 89 -424 181 -552 206 -10 2 -26 5 -35 8 -21 6
-66 15 -111 21 -18 3 -36 7 -40 9 -3 2 -35 7 -71 11 -36 4 -74 9 -85 12 -22 5
-412 13 -417 8z m422 -318 c14 -3 61 -11 105 -17 506 -74 1021 -372 1371 -792
225 -271 419 -674 469 -978 3 -19 10 -60 16 -90 23 -129 32 -431 16 -590 -78
-779 -558 -1457 -1278 -1803 -230 -110 -439 -170 -719 -204 -126 -16 -559 -6
-591 13 -4 2 -24 6 -45 9 -22 3 -50 8 -64 11 -14 3 -36 8 -50 10 -110 20 -325
101 -499 188 -313 156 -537 337 -760 612 -62 78 -179 268 -241 391 -106 217
-164 387 -204 608 -24 134 -29 183 -31 370 -3 234 14 384 69 606 12 47 50 168
61 194 7 17 18 46 25 65 23 63 126 264 179 349 192 310 484 589 806 773 255
145 582 250 849 274 27 2 51 6 54 8 6 6 433 -1 462 -7z"/>
<path d="M2480 4168 c-18 -13 -43 -36 -54 -51 -21 -28 -21 -34 -22 -820 -2
-665 0 -798 12 -827 20 -48 865 -895 917 -920 65 -30 145 -8 188 51 24 34 32
98 17 140 -5 14 -191 210 -413 435 -375 379 -405 412 -405 444 -1 19 -2 357
-3 751 l-2 716 -29 37 c-51 67 -143 86 -206 44z"/>
</g>
</svg>
